<?xml version="1.0" encoding="utf-8"?>
<!-- Generator: Adobe Illustrator 15.0.0, SVG Export Plug-In . SVG Version: 6.00 Build 0)  -->
<!DOCTYPE svg PUBLIC "-//W3C//DTD SVG 1.1//EN" "http://www.w3.org/Graphics/SVG/1.1/DTD/svg11.dtd">
<svg version="1.1" id="Icons" xmlns="http://www.w3.org/2000/svg" xmlns:xlink="http://www.w3.org/1999/xlink" x="0px" y="0px"
	 width="19px" height="17px" viewBox="0 0 19 17" enable-background="new 0 0 19 17" xml:space="preserve">
<path fill="#E3B31C" stroke="#BD522C" stroke-width="0.3" stroke-miterlimit="10" d="M18.896,7.958
	c-0.21-0.529-0.705-0.875-1.254-0.875h-1.271C15.723,3.068,12.17,0,8.143,0C3.653,0,0,3.813,0,8.5C0,13.187,3.653,17,8.143,17
	c1.429,0,2.538-0.255,3.773-1c0.648-0.393,0.87-1.259,0.495-1.937c-0.375-0.677-1.206-0.908-1.854-0.517
	c-0.824,0.497-1.461,0.62-2.414,0.62c-2.994,0-5.429-2.542-5.429-5.667c0-3.125,2.435-5.667,5.429-5.667
	c2.525,0,4.652,1.809,5.256,4.25h-1.186c-0.549,0-1.043,0.345-1.254,0.875c-0.21,0.529-0.094,1.139,0.295,1.544l2.714,2.833
	c0.266,0.276,0.612,0.415,0.96,0.415c0.347,0,0.694-0.139,0.959-0.415l2.715-2.833C18.99,9.097,19.106,8.487,18.896,7.958z"/>
</svg>
