<?xml version="1.0" encoding="utf-8"?>
<!-- Generator: Adobe Illustrator 15.0.0, SVG Export Plug-In . SVG Version: 6.00 Build 0)  -->
<!DOCTYPE svg PUBLIC "-//W3C//DTD SVG 1.1//EN" "http://www.w3.org/Graphics/SVG/1.1/DTD/svg11.dtd">
<svg version="1.1" id="Icons" xmlns="http://www.w3.org/2000/svg" xmlns:xlink="http://www.w3.org/1999/xlink" x="0px" y="0px"
	 width="20px" height="20px" viewBox="0 0 20 20" enable-background="new 0 0 20 20" xml:space="preserve">
<path fill="#BD5327" d="M8.75,15c-0.32,0-0.64-0.122-0.884-0.366c-0.488-0.488-0.488-1.279,0-1.768L10.732,10L7.866,7.134
	c-0.488-0.488-0.488-1.28,0-1.768c0.488-0.488,1.279-0.488,1.768,0l3.75,3.75c0.488,0.488,0.488,1.279,0,1.768l-3.75,3.75
	C9.39,14.878,9.07,15,8.75,15L8.75,15z M17.5,1.25h-15c-0.688,0-1.25,0.562-1.25,1.25v15c0,0.688,0.562,1.25,1.25,1.25h15
	c0.688,0,1.25-0.562,1.25-1.25v-15C18.75,1.812,18.188,1.25,17.5,1.25 M17.5,0C18.879,0,20,1.122,20,2.5v15
	c0,1.379-1.121,2.5-2.5,2.5h-15C1.122,20,0,18.879,0,17.5v-15C0,1.122,1.122,0,2.5,0H17.5L17.5,0z"/>
</svg>
