<?xml version="1.0" encoding="utf-8"?>
<!-- Generator: Adobe Illustrator 15.0.0, SVG Export Plug-In . SVG Version: 6.00 Build 0)  -->
<!DOCTYPE svg PUBLIC "-//W3C//DTD SVG 1.1//EN" "http://www.w3.org/Graphics/SVG/1.1/DTD/svg11.dtd">
<svg version="1.1" id="Icons" xmlns="http://www.w3.org/2000/svg" xmlns:xlink="http://www.w3.org/1999/xlink" x="0px" y="0px"
	 width="24px" height="24px" viewBox="0 0 24 24" enable-background="new 0 0 24 24" xml:space="preserve">
<path d="M-3945.5-5730c-0.384,0-0.768-0.146-1.061-0.439c-0.586-0.586-0.586-1.536,0-2.121l3.439-3.439l-3.439-3.439
	c-0.586-0.586-0.586-1.536,0-2.121c0.586-0.586,1.535-0.586,2.121,0l4.5,4.5c0.586,0.585,0.586,1.535,0,2.121l-4.5,4.5
	C-3944.732-5730.146-3945.116-5730-3945.5-5730L-3945.5-5730z M-3944-5746.5c-2.805,0-5.441,1.092-7.425,3.075
	c-1.983,1.983-3.075,4.62-3.075,7.425s1.092,5.441,3.075,7.425c1.983,1.983,4.62,3.075,7.425,3.075s5.441-1.092,7.425-3.075
	c1.983-1.983,3.075-4.62,3.075-7.425s-1.092-5.441-3.075-7.425C-3938.559-5745.408-3941.195-5746.5-3944-5746.5 M-3944-5748
	c6.627,0,12,5.373,12,12s-5.373,12-12,12s-12-5.373-12-12S-3950.627-5748-3944-5748L-3944-5748z"/>
<path d="M18,13.5c0,0.384-0.146,0.768-0.439,1.061c-0.586,0.586-1.535,0.586-2.121,0L12,11.121l-3.439,3.439
	c-0.586,0.586-1.536,0.586-2.122,0c-0.585-0.586-0.585-1.535,0-2.121l4.5-4.5c0.586-0.586,1.536-0.586,2.122,0l4.5,4.5
	C17.854,12.732,18,13.116,18,13.5L18,13.5z M1.5,12c0,2.805,1.092,5.441,3.075,7.425C6.559,21.408,9.195,22.5,12,22.5
	s5.441-1.092,7.425-3.075S22.5,14.805,22.5,12s-1.092-5.441-3.075-7.425S14.805,1.5,12,1.5S6.559,2.592,4.575,4.575
	C2.592,6.559,1.5,9.195,1.5,12 M0,12C0,5.373,5.373,0,12,0c6.627,0,12,5.373,12,12s-5.373,12-12,12C5.373,24,0,18.627,0,12L0,12z"/>
</svg>
