<?xml version="1.0" encoding="utf-8"?>
<!-- Generator: Adobe Illustrator 15.0.0, SVG Export Plug-In . SVG Version: 6.00 Build 0)  -->
<!DOCTYPE svg PUBLIC "-//W3C//DTD SVG 1.1//EN" "http://www.w3.org/Graphics/SVG/1.1/DTD/svg11.dtd">
<svg version="1.1" id="Icons" xmlns="http://www.w3.org/2000/svg" xmlns:xlink="http://www.w3.org/1999/xlink" x="0px" y="0px"
	 width="20px" height="20px" viewBox="0 0 20 20" enable-background="new 0 0 20 20" xml:space="preserve">
<path fill="#BD5327" d="M11.25,15c-0.32,0-0.64-0.122-0.884-0.366l-3.75-3.75c-0.488-0.488-0.488-1.28,0-1.768l3.75-3.75
	c0.488-0.488,1.279-0.488,1.768,0c0.488,0.488,0.488,1.279,0,1.768L9.268,10l2.866,2.866c0.488,0.488,0.488,1.279,0,1.768
	C11.89,14.878,11.57,15,11.25,15L11.25,15z M2.5,1.25c-0.688,0-1.25,0.562-1.25,1.25v15c0,0.688,0.562,1.25,1.25,1.25h15
	c0.688,0,1.25-0.562,1.25-1.25v-15c0-0.688-0.562-1.25-1.25-1.25H2.5 M2.5,0h15C18.879,0,20,1.122,20,2.5v15
	c0,1.379-1.121,2.5-2.5,2.5h-15C1.121,20,0,18.879,0,17.5v-15C0,1.122,1.121,0,2.5,0L2.5,0z"/>
</svg>
