<?xml version="1.0" encoding="utf-8"?>
<!-- Generator: Adobe Illustrator 15.0.0, SVG Export Plug-In . SVG Version: 6.00 Build 0)  -->
<!DOCTYPE svg PUBLIC "-//W3C//DTD SVG 1.1//EN" "http://www.w3.org/Graphics/SVG/1.1/DTD/svg11.dtd">
<svg version="1.1" id="Icons" xmlns="http://www.w3.org/2000/svg" xmlns:xlink="http://www.w3.org/1999/xlink" x="0px" y="0px"
	 width="18px" height="28px" viewBox="0 0 18 28" enable-background="new 0 0 18 28" xml:space="preserve">
<g>
	<path fill="#D7A916" d="M6.759,2.3c2.479,0,4.495,2.019,4.495,4.5c0,2.481-2.016,4.5-4.495,4.5c-2.484,0-4.504-2.019-4.504-4.5
		C2.255,4.319,4.275,2.3,6.759,2.3 M6.759,0.3c-3.592,0-6.504,2.911-6.504,6.5c0,3.589,2.913,6.5,6.504,6.5
		c3.587,0,6.495-2.911,6.495-6.5C13.254,3.211,10.346,0.3,6.759,0.3L6.759,0.3z"/>
</g>
<path fill="#FFFFFF" d="M6.891,5.578L5.312,7.5l0.141,6.703l-2.031,1.328c0,0-0.203,7.625,0.859,8.406s6.062,5.641,9.375,2.172
	s2.094-2.344,2.188-2.469s1.484-2.422,1.297-4.969s1.234-4.812-0.781-5s-6.156-0.094-6.672-0.734s-0.828-4.922-1-5.922
	S6.891,5.578,6.891,5.578z"/>
<path fill="#BD522C" d="M15.359,12.807c-0.406,0-0.787,0.107-1.123,0.296c-0.424-0.407-0.986-0.655-1.604-0.655
	c-0.405,0-0.789,0.107-1.123,0.296c-0.424-0.407-0.987-0.655-1.604-0.655c-0.116,0-0.229,0.009-0.342,0.025V7.416
	c0-1.387-1.07-2.516-2.387-2.516c-1.316,0-2.385,1.129-2.385,2.516v6.135c-1.155,0.175-2.045,1.225-2.045,2.49v3.953
	c0,4.359,3.364,7.906,7.5,7.906c4.135,0,7.5-3.547,7.5-7.906v-4.672C17.746,13.935,16.676,12.807,15.359,12.807z M16.383,19.994
	c0,3.572-2.748,6.469-6.137,6.469c-3.39,0-6.137-2.896-6.137-6.469v-3.953c0-0.596,0.458-1.079,1.022-1.079
	c0.12,0,0.234,0.022,0.341,0.063v4.608c0,0.198,0.153,0.359,0.341,0.359s0.341-0.161,0.341-0.359V7.416
	c0-0.595,0.458-1.078,1.022-1.078c0.565,0,1.023,0.483,1.023,1.078v8.625c0,0.199,0.153,0.359,0.341,0.359s0.341-0.16,0.341-0.359
	v-1.438c0-0.596,0.457-1.079,1.021-1.079c0.566,0,1.023,0.483,1.023,1.079v1.438c0,0.199,0.152,0.359,0.342,0.359
	c0.188,0,0.34-0.16,0.34-0.359v-1.079c0-0.595,0.459-1.078,1.023-1.078s1.021,0.483,1.021,1.078v1.079
	c0,0.199,0.152,0.359,0.342,0.359c0.188,0,0.34-0.16,0.34-0.359v-0.719c0-0.596,0.459-1.078,1.023-1.078
	c0.563,0,1.022,0.482,1.022,1.078v4.672H16.383z"/>
</svg>
